<svg width="912" height="934" viewBox="0 0 912 934" fill="none" xmlns="http://www.w3.org/2000/svg">
<circle cx="456" cy="478" r="456" fill="#029AA5"/>
<path fill-rule="evenodd" clip-rule="evenodd" d="M317.293 489.962L338.744 477.577C344.891 474.224 352.592 476.485 355.95 482.629L420.803 594.957C424.444 600.936 422.552 608.738 416.575 612.384L395.123 624.769C388.977 628.122 381.275 625.86 377.917 619.717L364.949 597.255L334.297 614.951C328.15 618.305 320.449 616.042 317.091 609.899L291.153 564.975C287.513 558.995 289.404 551.194 295.381 547.548L326.033 529.851L313.065 507.389C309.423 501.408 311.316 493.609 317.293 489.962Z" stroke="white" stroke-width="17.8269" stroke-linecap="round" stroke-linejoin="round"/>
<path fill-rule="evenodd" clip-rule="evenodd" d="M526.863 548.709L505.412 561.094C499.265 564.447 491.564 562.185 488.206 556.042L423.353 443.714C419.712 437.733 421.603 429.934 427.581 426.287L449.033 413.902C455.179 410.55 462.88 412.81 466.239 418.954L479.207 441.416L509.842 423.729C512.794 422.113 516.268 421.736 519.498 422.681C522.728 423.628 525.451 425.819 527.065 428.771L553.003 473.696C556.644 479.675 554.751 487.477 548.775 491.123L518.123 508.819L531.091 531.282C534.732 537.261 532.84 545.063 526.863 548.709Z" stroke="white" stroke-width="17.8269" stroke-linecap="round" stroke-linejoin="round"/>
<path d="M352.311 604.551C356.34 611.531 365.266 613.922 372.246 609.893C379.225 605.863 381.617 596.937 377.587 589.958L352.311 604.551ZM338.672 522.554C334.642 515.575 325.717 513.183 318.737 517.213C311.757 521.243 309.366 530.168 313.395 537.148L338.672 522.554ZM491.863 434.109C487.833 427.13 478.908 424.738 471.928 428.768C464.948 432.798 462.557 441.723 466.587 448.703L491.863 434.109ZM505.502 516.106C509.532 523.086 518.457 525.477 525.437 521.448C532.416 517.418 534.808 508.493 530.778 501.513L505.502 516.106ZM381.08 526.155C374.1 530.184 371.709 539.11 375.739 546.089C379.768 553.069 388.693 555.461 395.673 551.431L381.08 526.155ZM463.077 512.516C470.056 508.486 472.448 499.56 468.418 492.581C464.389 485.601 455.463 483.21 448.483 487.239L463.077 512.516ZM377.587 589.958L338.672 522.554L313.395 537.148L352.311 604.551L377.587 589.958ZM466.587 448.703L505.502 516.106L530.778 501.513L491.863 434.109L466.587 448.703ZM395.673 551.431L463.077 512.516L448.483 487.239L381.08 526.155L395.673 551.431Z" fill="white"/>
<path d="M644.105 395.177C631.808 363.66 612.218 339.246 587.404 324.385C581.681 335.387 574.852 345.778 567.025 355.398C567.069 355.423 567.114 355.445 567.158 355.471C604.109 376.708 625.6 430.98 619.42 487.452C609.183 581.011 580.766 645.132 539.405 668.002C512.515 682.869 478.98 680.751 439.727 661.715L435.893 659.861H407.625L403.792 661.715C364.539 680.754 331.004 682.869 304.114 668.002C262.754 645.132 234.34 581.011 224.098 487.452C217.918 430.98 239.411 376.707 276.361 355.471C288.263 348.672 301.761 345.165 315.467 345.308C343.45 345.308 375.698 358.418 410.74 384.317L411.99 385.244C411.99 385.244 462.504 379.102 482.517 370.017C542.811 342.643 556.116 299.134 558.476 293.225C565.431 275.963 568.907 257.497 568.703 238.888C568.5 220.278 564.622 201.892 557.292 184.786L552.571 173L539.881 173.127C519.813 173.347 500.018 177.81 481.797 186.221C463.575 194.633 447.339 206.804 434.154 221.935C420.969 237.065 411.134 254.814 405.294 274.015C399.454 293.216 397.742 313.435 400.27 333.344C378.364 321.07 357.063 313.243 336.657 310.001C307.747 305.406 281.242 309.885 257.879 323.314C232.22 338.062 212.003 362.912 199.414 395.175C187.97 424.507 183.642 458.71 187.228 491.484C198.983 598.906 233.195 671.167 286.165 700.46C303.57 710.116 323.17 715.123 343.074 714.998C365.774 714.998 390.165 708.978 416.065 696.946H427.458C476.595 719.771 520.28 720.959 557.354 700.46C610.322 671.17 644.538 598.908 656.293 491.484C659.877 458.712 655.549 424.509 644.105 395.177ZM499.924 218.745C508.689 214.972 517.928 212.412 527.385 211.137C531.587 225.666 532.608 240.929 530.378 255.888C528.148 270.847 522.721 285.149 514.465 297.821C506.209 310.493 495.319 321.237 482.537 329.321C469.754 337.404 455.38 342.638 440.392 344.665C433.278 320.026 435.4 293.639 446.361 270.454C457.322 247.27 476.368 228.883 499.924 218.745Z" fill="white"/>
</svg>
