<svg width="700" height="727" viewBox="0 0 700 727" fill="none" xmlns="http://www.w3.org/2000/svg">
<circle cx="421.5" cy="305.5" r="421.5" fill="#029AA5"/>
<path fill-rule="evenodd" clip-rule="evenodd" d="M317.426 351.962L338.899 339.577C345.052 336.224 352.762 338.485 356.123 344.629L421.042 456.957C424.687 462.936 422.793 470.738 416.809 474.384L395.336 486.769C389.183 490.122 381.474 487.86 378.113 481.717L365.131 459.255L334.448 476.951C328.295 480.305 320.586 478.042 317.224 471.899L291.261 426.975C287.616 420.995 289.509 413.195 295.493 409.548L326.176 391.851L313.194 369.389C309.549 363.409 311.443 355.609 317.426 351.962Z" stroke="white" stroke-width="17.8269" stroke-linecap="round" stroke-linejoin="round"/>
<path fill-rule="evenodd" clip-rule="evenodd" d="M527.21 410.709L505.737 423.094C499.584 426.447 491.875 424.185 488.514 418.042L423.595 305.714C419.95 299.733 421.843 291.934 427.827 288.287L449.3 275.902C455.453 272.55 463.162 274.81 466.524 280.954L479.506 303.416L510.172 285.729C513.126 284.113 516.604 283.736 519.838 284.681C523.07 285.628 525.796 287.819 527.413 290.771L553.376 335.696C557.021 341.675 555.127 349.477 549.144 353.123L518.461 370.82L531.443 393.282C535.087 399.261 533.193 407.063 527.21 410.709Z" stroke="white" stroke-width="17.8269" stroke-linecap="round" stroke-linejoin="round"/>
<path d="M352.48 466.551C356.514 473.531 365.448 475.922 372.435 471.893C379.422 467.863 381.816 458.938 377.782 451.958L352.48 466.551ZM338.827 384.555C334.793 377.575 325.859 375.183 318.872 379.213C311.885 383.243 309.491 392.168 313.525 399.148L338.827 384.555ZM492.174 296.11C488.14 289.13 479.206 286.738 472.219 290.768C465.232 294.798 462.838 303.723 466.872 310.703L492.174 296.11ZM505.827 378.106C509.861 385.086 518.796 387.477 525.782 383.448C532.769 379.418 535.163 370.493 531.129 363.513L505.827 378.106ZM381.279 388.155C374.292 392.185 371.898 401.11 375.932 408.09C379.966 415.069 388.9 417.461 395.887 413.431L381.279 388.155ZM463.359 374.516C470.346 370.486 472.74 361.561 468.706 354.581C464.672 347.601 455.737 345.21 448.751 349.239L463.359 374.516ZM377.782 451.958L338.827 384.555L313.525 399.148L352.48 466.551L377.782 451.958ZM466.872 310.703L505.827 378.106L531.129 363.513L492.174 296.11L466.872 310.703ZM395.887 413.431L463.359 374.516L448.751 349.239L381.279 388.155L395.887 413.431Z" fill="white"/>
<path d="M644.571 257.177C632.262 225.66 612.652 201.246 587.813 186.385C582.083 197.387 575.248 207.778 567.413 217.398C567.457 217.423 567.502 217.445 567.546 217.471C604.535 238.708 626.048 292.98 619.862 349.452C609.613 443.011 581.168 507.132 539.764 530.002C512.847 544.869 479.279 542.751 439.985 523.715L436.147 521.861H407.851L404.014 523.715C364.72 542.754 331.152 544.869 304.234 530.002C262.832 507.132 234.389 443.011 224.137 349.452C217.951 292.98 239.465 238.707 276.453 217.471C288.367 210.672 301.879 207.165 315.599 207.308C343.61 207.308 375.891 220.418 410.969 246.317L412.22 247.244C412.22 247.244 462.786 241.102 482.818 232.017C543.174 204.643 556.493 161.134 558.855 155.225C565.817 137.963 569.296 119.497 569.093 100.888C568.89 82.2783 565.008 63.8924 557.67 46.7863L552.945 35L540.241 35.1275C520.153 35.3474 500.338 39.8097 482.098 48.2214C463.858 56.6331 447.605 68.8038 434.407 83.9346C421.209 99.0654 411.363 116.814 405.518 136.015C399.672 155.216 397.958 175.435 400.488 195.344C378.56 183.07 357.237 175.243 336.81 172.001C307.871 167.406 281.339 171.885 257.952 185.314C232.267 200.062 212.029 224.912 199.428 257.175C187.972 286.507 183.64 320.71 187.229 353.484C198.996 460.906 233.243 533.167 286.267 562.46C303.69 572.116 323.31 577.123 343.234 576.998C365.957 576.998 390.373 570.978 416.299 558.946H427.704C476.891 581.771 520.621 582.959 557.732 562.46C610.754 533.17 645.005 460.908 656.772 353.484C660.359 320.712 656.027 286.509 644.571 257.177ZM500.244 80.7451C509.018 76.972 518.266 74.4124 527.733 73.1372C531.939 87.6659 532.96 102.929 530.728 117.888C528.497 132.847 523.064 147.149 514.799 159.821C506.535 172.493 495.634 183.237 482.839 191.32C470.043 199.404 455.654 204.638 440.651 206.665C433.529 182.026 435.654 155.639 446.626 132.454C457.598 109.27 476.664 90.883 500.244 80.7451Z" fill="white"/>
</svg>
